# Blender 5.1.2
# www.blender.org
mtllib first_floor.mtl
o Cube-col
v -9.015780 -0.070972 9.015780
v -8.637214 0.070972 8.637214
v -9.015780 -0.070972 -9.015780
v -8.637214 0.070972 -8.637214
v 9.015780 -0.070972 9.015780
v 8.637214 0.070972 8.637214
v 9.015780 -0.070972 -9.015780
v 8.637214 0.070972 -8.637214
v -9.015780 0.070972 9.015780
v -9.015780 0.070972 -9.015780
v 9.015780 0.070972 -9.015780
v 9.015780 0.070972 9.015780
v -9.015780 2.570972 9.015780
v -9.015780 2.570972 -9.015780
v 9.015780 2.570972 -9.015780
v 9.015780 2.570972 9.015780
v -8.637214 2.570972 8.637214
v -8.637214 2.570972 -8.637214
v 8.637214 2.570972 -8.637214
v 8.637214 2.570972 8.637214
v -9.015780 0.084392 0.937334
v -9.015780 0.084392 -0.169581
v -9.015780 2.174652 0.937334
v -9.015780 2.174652 -0.169581
v -8.637214 0.084392 0.937334
v -8.637214 0.084392 -0.169581
v -8.637214 2.174652 0.937334
v -8.637214 2.174652 -0.169581
v -9.015780 1.807156 0.937334
v -9.015780 2.162500 0.937334
v -9.015780 0.072240 0.937334
v -9.015780 0.072240 -0.169581
v -9.015780 2.162500 -0.169581
v -9.015780 0.427584 -0.169581
v -8.637214 0.072240 0.937334
v -8.637214 0.072240 -0.169581
v -8.637214 2.162500 -0.169581
v -8.637214 2.162500 0.937334
v -9.013579 2.162500 0.937334
v -8.921319 0.605962 -0.169581
v -8.914630 1.616146 0.937334
v 4.556119 0.864559 -8.637214
v 5.793785 0.864559 -8.637214
v 4.556119 2.178668 -8.637214
v 5.793785 2.178668 -8.637214
v 8.637214 0.864559 5.920900
v 8.637214 0.864559 4.683235
v 8.637214 2.178668 5.920900
v 8.637214 0.864559 -5.679595
v 8.637214 2.178668 4.683235
v 8.637214 2.178668 -6.917261
v 8.637214 0.864559 -6.917261
v 8.637214 2.178668 -5.679595
v -5.918559 0.864559 8.637214
v -4.680893 0.864559 8.637214
v -5.918559 2.178668 8.637214
v -4.680893 2.178668 8.637214
v -8.637214 2.178668 4.683235
v -9.015780 2.178668 4.683235
v -9.015780 0.864559 4.683235
v -8.637214 0.864559 4.683235
v -9.015780 2.178668 5.920900
v -8.637214 2.178668 5.920900
v -9.015780 0.864559 5.920900
v -8.637214 0.864559 5.920900
v -5.918559 2.178668 9.015780
v -5.918559 0.864559 9.015780
v -4.680893 2.178668 9.015780
v -4.680893 0.864559 9.015780
v 9.015780 2.178668 4.683235
v 9.015780 0.864559 4.683235
v 9.015780 2.178668 5.920900
v 9.015780 0.864559 5.920900
v 9.015780 2.178668 -6.917261
v 9.015780 0.864559 -6.917261
v 9.015780 2.178668 -5.679595
v 9.015780 0.864559 -5.679595
v 4.556119 2.178668 -9.015780
v 4.556119 0.864559 -9.015780
v 5.793785 2.178668 -9.015780
v 5.793785 0.864559 -9.015780
v -2.188743 0.102107 -9.015780
v -1.081828 1.470963 -9.015780
v -1.081828 0.102107 -9.015780
v -2.188743 2.192367 -9.015780
v -1.081828 2.192367 -9.015780
v -2.188743 0.102107 -8.637214
v -1.081828 1.477537 -8.637214
v -1.081828 0.102107 -8.637214
v -2.188743 2.192367 -8.637214
v -1.081828 2.192367 -8.637214
v -0.512706 -0.004912 8.802138
v -0.512706 2.495088 8.802138
v -1.012706 -0.004912 8.802138
v -1.012706 2.495088 8.802138
v -0.512706 -0.004912 2.825150
v -0.512706 2.495088 2.825150
v -1.012706 -0.004912 2.825150
v -1.012706 2.495088 2.825150
v -8.707956 -0.004912 -2.750000
v -8.707956 2.495088 -2.750000
v -8.707956 -0.004912 -3.250000
v -8.707956 2.495088 -3.250000
v 8.698503 -0.004912 -2.750000
v 8.698503 2.495088 -2.750000
v 8.698503 -0.004912 -3.250000
v 8.698503 2.495088 -3.250000
v -0.652400 -0.004912 3.250000
v -0.652400 2.495088 3.250000
v -0.652400 -0.004912 2.750000
v -0.652400 2.495088 2.750000
v 5.010191 -0.004912 3.250000
v 5.010191 2.495088 3.250000
v 5.010191 -0.004912 2.750000
v 5.010191 2.495088 2.750000
v 5.487801 -0.004912 8.802137
v 5.487801 2.495088 8.802137
v 4.987801 -0.004912 8.802137
v 4.987801 2.495088 8.802137
v 5.487801 -0.004912 2.825150
v 5.487801 2.495088 2.825150
v 4.987801 -0.004912 2.825150
v 4.987801 2.495088 2.825150
v 5.377277 -0.004912 3.076169
v 5.377277 2.495088 3.076169
v 4.940354 -0.004912 2.833068
v 4.940354 2.495088 2.833068
v 8.685211 -0.004912 -2.869162
v 8.685211 2.495088 -2.869162
v 8.248287 -0.004912 -3.112263
v 8.248287 2.495088 -3.112263
v -0.516412 -0.004912 2.869576
v -0.516412 2.495088 2.869576
v -0.958057 -0.004912 3.103991
v -0.958057 2.495088 3.103991
v -3.706150 -0.004912 -3.139996
v -3.706150 2.495088 -3.139996
v -4.147795 -0.004912 -2.905581
v -4.147795 2.495088 -2.905581
v 2.507053 -0.004912 -2.828067
v 2.507053 2.495088 -2.828067
v 2.007053 -0.004912 -2.828067
v 2.007053 2.495088 -2.828067
v 2.507053 -0.004912 -8.805055
v 2.507053 2.495088 -8.805055
v 2.007053 -0.004912 -8.805055
v 2.007053 2.495088 -8.805055
v -3.661064 -0.004912 -2.828067
v -3.661064 2.495088 -2.828067
v -4.161064 -0.004912 -2.828067
v -4.161064 2.495088 -2.828067
v -3.661064 -0.004912 -8.805055
v -3.661064 2.495088 -8.805055
v -4.161064 -0.004912 -8.805055
v -4.161064 2.495088 -8.805055
v -1.012706 2.169740 4.976376
v -1.012706 2.495088 3.001029
v -1.012706 2.421524 3.001029
v -1.012706 2.169740 3.869461
v -1.012706 -0.004912 4.976376
v -1.012706 -0.004912 3.869461
v -1.012706 0.037921 3.001029
v -1.012706 -0.004912 3.001029
v -0.539992 2.495088 2.825150
v -0.652400 2.495088 2.825150
v -0.652400 -0.004912 2.825150
v -0.539992 -0.004912 2.825150
v -0.512706 2.169740 4.976376
v -0.512706 2.495088 3.250000
v -0.512706 2.169740 3.869461
v -0.512706 -0.004912 4.976376
v -0.512706 -0.004912 3.250000
v -0.512706 -0.004912 3.869461
v 5.625660 2.260767 -3.250000
v 4.518745 2.260767 -3.250000
v 2.471756 2.495088 -3.250000
v 2.007053 2.495088 -3.250000
v 2.507053 2.318606 -3.250000
v 2.507053 2.495088 -3.250000
v -0.889974 2.260767 -3.250000
v -3.661064 2.495088 -3.250000
v -3.661064 2.318606 -3.250000
v -4.161064 2.495088 -3.250000
v 0.216940 2.260767 -3.250000
v 5.625660 0.064519 -3.250000
v 2.007053 -0.004912 -3.250000
v 2.507053 -0.004912 -3.250000
v 4.518745 0.064519 -3.250000
v -0.889974 0.064519 -3.250000
v 0.216940 0.064519 -3.250000
v -3.661064 -0.004912 -3.250000
v -4.125768 -0.004912 -3.250000
v -4.161064 -0.004912 -3.250000
v 8.046726 0.088700 -2.750000
v 8.618910 2.495088 -2.750000
v 5.625660 2.260767 -2.750000
v 8.046726 2.342757 -2.750000
v 8.046726 2.495088 -2.750000
v 4.518745 2.260767 -2.750000
v -0.889974 2.260767 -2.750000
v 0.216940 2.260767 -2.750000
v -3.499150 2.495088 -2.750000
v -4.065216 2.495088 -2.750000
v 8.618910 -0.004912 -2.750000
v 8.606953 -0.004912 -2.750000
v 8.046726 -0.004912 -2.750000
v 5.625660 0.064519 -2.750000
v 4.518745 0.064519 -2.750000
v 0.216940 0.064519 -2.750000
v -0.889974 0.064519 -2.750000
v -3.499150 -0.004912 -2.750000
v -4.065216 -0.004912 -2.750000
v -0.652400 2.495088 2.941756
v -0.652400 -0.004912 2.941756
v 4.986573 2.484661 2.750000
v 4.986573 2.495088 2.750000
v -0.579880 2.445344 2.750000
v -0.579880 2.495088 2.750000
v -0.579880 0.027105 2.750000
v -0.579880 -0.004912 2.750000
v 4.986573 0.030018 2.750000
v 4.986573 -0.004912 2.750000
v 5.010191 2.495088 2.825150
v 5.010191 2.495088 2.871925
v 5.010191 -0.004912 2.825150
v 5.010191 -0.004912 2.871925
v 4.987801 2.495088 3.250000
v 4.987801 -0.004912 3.250000
v 4.987801 2.169740 4.976376
v 4.987801 2.169740 3.869461
v 4.987801 2.495088 2.859468
v 4.987801 -0.004912 4.976376
v 4.987801 -0.004912 3.869461
v 4.987801 -0.004912 2.859468
v 5.487801 2.169740 4.976376
v 5.487801 2.411559 2.877525
v 5.487801 0.016995 2.877525
v 5.487801 2.495088 2.877525
v 5.487801 2.169740 3.869461
v 5.487801 -0.004912 4.976376
v 5.487801 -0.004912 2.877525
v 5.487801 -0.004912 3.869461
v 6.717937 2.260767 -0.361773
v 6.179686 2.260767 0.605622
v 6.717937 0.064519 -0.361773
v 6.179686 0.064519 0.605622
v 6.612753 2.260767 0.855654
v 7.151004 2.260767 -0.111742
v 8.620163 -0.004912 -2.752251
v 7.151004 0.064519 -0.111742
v 6.612753 0.064519 0.855654
v -2.044608 2.260767 1.056893
v -2.563891 2.260767 0.078546
v -4.134938 2.495088 -2.881360
v -4.106651 2.495088 -2.828067
v -2.044608 0.064519 1.056893
v -2.563891 0.064519 0.078546
v -4.106651 -0.004912 -2.828067
v -1.611320 2.260767 0.806734
v -2.130603 2.260767 -0.171613
v -3.661064 2.495088 -3.055052
v -1.611320 0.064519 0.806734
v -2.130603 0.064519 -0.171613
v -3.688001 -0.004912 -3.105802
v -3.661064 -0.004912 -3.055052
v 2.007053 -0.004912 -2.942212
v 2.507053 2.495088 -3.072151
v -4.161064 2.260767 -6.405188
v -4.161064 2.260767 -5.298273
v -4.161064 0.064519 -5.298273
v -4.161064 -0.004912 -3.119390
v -4.161064 0.064519 -6.405188
v -3.661064 2.495088 -2.894972
v -3.661064 2.260767 -6.405188
v -3.661064 2.260767 -5.298273
v -3.661064 0.064519 -6.405188
v -3.661064 0.064519 -5.298273
v 8.608648 -0.004912 -2.752581
v -3.691140 -0.004912 -3.105892
v -4.136752 -0.004912 -3.118692
v 2.016579 -0.004912 -2.941938
v -3.666647 2.495088 -2.894812
v 2.486683 2.495088 -3.071566
v -4.132607 2.495088 -2.881427
vn -1.0000 -0.0000 -0.0000
vn -0.0000 -0.0000 -1.0000
vn 1.0000 -0.0000 -0.0000
vn -0.0000 -0.0000 1.0000
vn -0.0000 -1.0000 -0.0000
vn -0.0000 1.0000 -0.0000
vn -0.8738 -0.0000 -0.4862
vn 0.8738 -0.0000 0.4862
vn -0.8833 -0.0000 0.4688
vn 0.8833 -0.0000 -0.4688
vn 0.5000 -0.0000 -0.8660
vn -0.5000 -0.0000 0.8660
vn 0.5000 -0.0000 0.8660
vn -0.5000 -0.0000 -0.8660
vt 0.375000 0.000000
vt 0.625000 0.000000
vt 0.625000 0.250000
vt 0.375000 0.250000
vt 0.625000 0.500000
vt 0.375000 0.500000
vt 0.625000 0.750000
vt 0.375000 0.750000
vt 0.625000 1.000000
vt 0.375000 1.000000
vt 0.125000 0.500000
vt 0.125000 0.750000
vt 0.630249 0.505249
vt 0.869751 0.505249
vt 0.869751 0.744751
vt 0.630249 0.744751
vt 0.625000 0.455328
vt 0.625000 0.455328
vt 0.625000 0.438169
vt 0.625000 0.360001
vt 0.625000 0.344654
vt 0.625000 0.360001
vt 0.625000 0.360001
vt 0.625000 0.957058
vt 0.625000 0.939899
vt 0.625000 0.939899
vt 0.625000 0.060069
vt 0.625000 0.042909
vt 0.625000 0.112004
vt 0.625000 0.112004
vt 0.625000 0.112004
vt 0.625000 0.060069
vt 0.625000 0.127351
vt 0.625000 0.127351
vt 0.625000 0.127351
vt 0.669672 0.505249
vt 0.686831 0.505249
vt 0.686831 0.505249
vt 0.764999 0.505249
vt 0.764999 0.505249
vt 0.780346 0.505249
vt 0.780346 0.505249
vt 0.764999 0.505249
vt 0.875000 0.500000
vt 0.875000 0.750000
vt 0.630249 0.707091
vt 0.630249 0.707091
vt 0.630249 0.529095
vt 0.630249 0.546255
vt 0.630249 0.689931
vt 0.630249 0.689931
vt 0.869751 0.637996
vt 0.869751 0.637996
vt 0.869751 0.637996
vt 0.869751 0.622649
vt 0.869751 0.622649
vt 0.869751 0.707091
vt 0.869751 0.707091
vt 0.869751 0.689931
vt 0.869751 0.689931
vt 0.625000 0.529095
vt 0.625000 0.546255
vt 0.625000 0.707091
vt 0.625000 0.689931
vt 0.625000 0.689931
vt 0.625000 0.707091
vt 0.625000 0.546255
vt 0.832058 0.744751
vt 0.832058 0.744751
vt 0.814899 0.744751
vt 0.814899 0.744751
vt 0.623547 0.378000
vt 0.625000 0.378000
vt 0.625000 0.292500
vt 0.623547 0.292500
vt 0.416047 0.292500
vt 0.375000 0.292500
vt 0.437381 0.313834
vt 0.375000 0.378000
vt 0.623547 0.957500
vt 0.625000 0.957500
vt 0.625000 0.872000
vt 0.623547 0.872000
vt 0.623547 0.957003
vt 0.558201 0.934655
vt 0.581047 0.957500
vt 0.375000 0.872000
vt 0.375000 0.957500
vt 0.832500 0.500000
vt 0.747000 0.500000
vt 0.747000 0.750000
vt 0.832500 0.750000
vt 0.376453 0.378000
vt 0.376453 0.292500
vt 0.376453 0.957500
vt 0.376453 0.872000
vt 0.167500 0.500000
vt 0.167500 0.750000
vt 0.253000 0.750000
vt 0.253000 0.500000
vt 0.625000 0.441951
vt 0.625000 0.372872
vt 0.375000 0.372872
vt 0.375000 0.441951
vt 0.625000 0.877128
vt 0.625000 0.808049
vt 0.375000 0.808049
vt 0.375000 0.877128
vt 0.247872 0.750000
vt 0.316951 0.750000
vt 0.316951 0.500000
vt 0.247872 0.500000
vt 0.683049 0.750000
vt 0.752128 0.750000
vt 0.752128 0.500000
vt 0.683049 0.500000
vt 0.375000 0.344381
vt 0.375000 0.413460
vt 0.625000 0.413460
vt 0.625000 0.344381
vt 0.375000 0.836540
vt 0.375000 0.905619
vt 0.625000 0.905619
vt 0.625000 0.836540
vt 0.219381 0.750000
vt 0.288460 0.750000
vt 0.288460 0.500000
vt 0.219381 0.500000
vt 0.711540 0.500000
vt 0.711540 0.750000
vt 0.780618 0.750000
vt 0.780618 0.500000
vt 0.625000 0.406287
vt 0.625000 0.337209
vt 0.375000 0.337209
vt 0.375000 0.406287
vt 0.375000 0.843713
vt 0.375000 0.912791
vt 0.625000 0.912791
vt 0.625000 0.843713
vt 0.212208 0.500000
vt 0.212208 0.750000
vt 0.281287 0.750000
vt 0.281287 0.500000
vt 0.787791 0.500000
vt 0.718713 0.500000
vt 0.718713 0.750000
vt 0.787791 0.750000
vt 0.625000 0.392862
vt 0.625000 0.323784
vt 0.375000 0.323784
vt 0.375000 0.392862
vt 0.375000 0.857138
vt 0.375000 0.926216
vt 0.625000 0.926216
vt 0.625000 0.857138
vt 0.267862 0.500000
vt 0.198784 0.500000
vt 0.198784 0.750000
vt 0.267862 0.750000
vt 0.801216 0.750000
vt 0.801216 0.500000
vt 0.732138 0.500000
vt 0.732138 0.750000
vt 0.375000 0.085232
vt 0.375000 0.170732
vt 0.625000 0.170732
vt 0.625000 0.085232
vt 0.625000 0.664768
vt 0.625000 0.579268
vt 0.538718 0.579268
vt 0.375000 0.579268
vt 0.375000 0.664768
vt 0.539505 0.664768
vt 0.125000 0.579268
vt 0.125000 0.664768
vt 0.875000 0.579268
vt 0.875000 0.664768
vt 0.375000 0.492644
vt 0.375000 0.456320
vt 0.592465 0.456320
vt 0.592465 0.410021
vt 0.375000 0.410021
vt 0.625000 0.492644
vt 0.617644 0.492644
vt 0.379283 0.492644
vt 0.375000 0.767770
vt 0.625000 0.767770
vt 0.375000 0.839980
vt 0.592465 0.839980
vt 0.592465 0.793680
vt 0.375000 0.793680
vt 0.285021 0.750000
vt 0.285021 0.500000
vt 0.357230 0.750000
vt 0.331320 0.750000
vt 0.331320 0.500000
vt 0.367644 0.500000
vt 0.363337 0.527325
vt 0.370123 0.680153
vt 0.357230 0.680153
vt 0.373142 0.748147
vt 0.375000 0.736357
vt 0.375000 0.680153
vt 0.632356 0.500000
vt 0.642770 0.750000
vt 0.642770 0.680153
vt 0.629877 0.680153
vt 0.636663 0.527325
vt 0.626858 0.748147
vt 0.625000 0.736357
vt 0.625000 0.680153
vt 0.625000 0.403894
vt 0.375000 0.403894
vt 0.381943 0.378184
vt 0.601568 0.378184
vt 0.381943 0.439968
vt 0.381943 0.455866
vt 0.601568 0.455866
vt 0.601568 0.439968
vt 0.607352 0.411075
vt 0.625000 0.411075
vt 0.375000 0.411075
vt 0.375000 0.315305
vt 0.625000 0.315305
vt 0.375000 0.322486
vt 0.607352 0.322486
vt 0.625000 0.322486
vt 0.601568 0.362286
vt 0.381943 0.362286
vt 0.375000 0.933319
vt 0.625000 0.933319
vt 0.601568 0.871816
vt 0.381943 0.871816
vt 0.381943 0.887714
vt 0.375000 0.925189
vt 0.375000 0.759361
vt 0.384361 0.759361
vt 0.381943 0.794134
vt 0.381943 0.810032
vt 0.601568 0.810032
vt 0.601568 0.794134
vt 0.609767 0.759361
vt 0.625000 0.759361
vt 0.625000 0.925189
vt 0.601568 0.887714
vt 0.625000 0.751143
vt 0.375000 0.751143
vt 0.191681 0.750000
vt 0.190305 0.500000
vt 0.190305 0.565305
vt 0.190305 0.710967
vt 0.191086 0.710967
vt 0.278894 0.710967
vt 0.286075 0.710967
vt 0.286075 0.500000
vt 0.373857 0.750000
vt 0.373875 0.748875
vt 0.374809 0.690419
vt 0.368534 0.568869
vt 0.365639 0.750000
vt 0.199811 0.750000
vt 0.197486 0.597474
vt 0.197486 0.500000
vt 0.278894 0.500000
vt 0.278894 0.653894
vt 0.279031 0.654031
vt 0.190812 0.500000
vt 0.190654 0.565654
vt 0.197099 0.572099
vt 0.197054 0.572054
vt 0.196838 0.555002
vt 0.373685 0.750000
vt 0.373709 0.748710
vt 0.190495 0.672209
vt 0.197486 0.710967
vt 0.808914 0.710967
vt 0.809695 0.710967
vt 0.809695 0.500000
vt 0.808319 0.750000
vt 0.625191 0.690419
vt 0.626143 0.750000
vt 0.713925 0.500000
vt 0.713925 0.588924
vt 0.713925 0.710967
vt 0.721106 0.710967
vt 0.721106 0.500000
vt 0.802514 0.500000
vt 0.802514 0.597474
vt 0.800189 0.750000
vt 0.634361 0.750000
vt 0.631466 0.568869
vt 0.714432 0.500000
vt 0.714217 0.589217
vt 0.809505 0.672209
vt 0.809320 0.684320
vt 0.809287 0.684287
vt 0.802514 0.677514
vt 0.802514 0.710967
vt 0.803162 0.555002
vt 0.802594 0.677594
vt 0.375000 0.253202
vt 0.378202 0.253202
vt 0.620026 0.253202
vt 0.625000 0.253202
vt 0.625000 0.498957
vt 0.623957 0.498957
vt 0.378493 0.498957
vt 0.375000 0.498957
vt 0.625000 0.750989
vt 0.625000 0.993833
vt 0.375000 0.993833
vt 0.375000 0.750989
vt 0.374011 0.750000
vt 0.131167 0.750000
vt 0.131167 0.537575
vt 0.129963 0.537575
vt 0.128202 0.500000
vt 0.373957 0.500000
vt 0.371917 0.541534
vt 0.374011 0.554734
vt 0.374011 0.537575
vt 0.375000 0.537575
vt 0.375000 0.560963
vt 0.125000 0.537575
vt 0.870037 0.537575
vt 0.868833 0.537575
vt 0.868833 0.750000
vt 0.625989 0.750000
vt 0.625988 0.554734
vt 0.628083 0.541534
vt 0.626043 0.500000
vt 0.871798 0.500000
vt 0.875000 0.537575
vt 0.625000 0.560963
vt 0.625988 0.537575
vt 0.625000 0.537575
vt 0.625000 0.482230
vt 0.375000 0.482230
vt 0.375000 0.752191
vt 0.377191 0.752191
vt 0.616647 0.752191
vt 0.625000 0.752191
vt 0.357230 0.511195
vt 0.373044 0.511195
vt 0.364501 0.694738
vt 0.372809 0.750000
vt 0.357230 0.500000
vt 0.375000 0.511195
vt 0.642770 0.511195
vt 0.642770 0.500000
vt 0.627191 0.750000
vt 0.635499 0.694738
vt 0.626957 0.511195
vt 0.625000 0.511195
vt 0.601568 0.343664
vt 0.623957 0.253493
vt 0.625000 0.253493
vt 0.625000 0.484767
vt 0.609767 0.484767
vt 0.384361 0.484767
vt 0.375000 0.484767
vt 0.375000 0.253493
vt 0.378493 0.253493
vt 0.381943 0.343664
vt 0.381943 0.384342
vt 0.601568 0.384343
vt 0.616647 0.991647
vt 0.377191 0.991647
vt 0.381943 0.906628
vt 0.601568 0.906628
vt 0.375000 0.991647
vt 0.375000 0.755011
vt 0.625000 0.755011
vt 0.625000 0.991647
vt 0.601568 0.865949
vt 0.381943 0.865949
vt 0.135035 0.737268
vt 0.126502 0.528589
vt 0.128915 0.510320
vt 0.128493 0.500000
vt 0.359767 0.500000
vt 0.369776 0.744776
vt 0.369989 0.750000
vt 0.133353 0.750000
vt 0.871507 0.500000
vt 0.871085 0.510320
vt 0.873498 0.528589
vt 0.864965 0.737268
vt 0.866647 0.750000
vt 0.630011 0.750000
vt 0.640233 0.500000
vt 0.625000 0.254283
vt 0.625000 0.493528
vt 0.375000 0.493528
vt 0.375000 0.254283
vt 0.379283 0.254283
vt 0.381943 0.335160
vt 0.381943 0.375859
vt 0.601568 0.375859
vt 0.601568 0.335160
vt 0.617644 0.254283
vt 0.601568 0.914185
vt 0.620026 0.995026
vt 0.378202 0.995026
vt 0.381943 0.914185
vt 0.375000 0.995026
vt 0.375000 0.766224
vt 0.625000 0.766224
vt 0.625000 0.995026
vt 0.601568 0.873486
vt 0.381943 0.873486
vt 0.128785 0.700356
vt 0.134992 0.541228
vt 0.129283 0.500000
vt 0.368528 0.500000
vt 0.358776 0.750000
vt 0.129974 0.750000
vt 0.131224 0.717972
vt 0.870026 0.750000
vt 0.641224 0.750000
vt 0.631472 0.500000
vt 0.870717 0.500000
vt 0.865008 0.541228
vt 0.871215 0.700356
vt 0.868776 0.717972
vt 0.375000 0.267648
vt 0.625000 0.267648
vt 0.375000 0.982352
vt 0.625000 0.982352
vt 0.607352 0.982352
vt 0.142648 0.500000
vt 0.142648 0.750000
vt 0.857352 0.500000
vt 0.857352 0.732352
vt 0.857352 0.750000
vt 0.601568 0.353322
vt 0.381943 0.353322
vt 0.381943 0.399621
vt 0.601568 0.399621
vt 0.381943 0.896678
vt 0.601568 0.896679
vt 0.601568 0.850379
vt 0.381943 0.850379
vt 0.142648 0.517648
vt 0.625000 0.455959
vt 0.625000 0.343033
vt 0.377458 0.343033
vt 0.377458 0.455959
vt 0.377458 0.906967
vt 0.625000 0.906967
vt 0.625000 0.794041
vt 0.377458 0.794041
vt 0.781967 0.750000
vt 0.781967 0.500000
vt 0.669041 0.500000
vt 0.669041 0.750000
vt 0.625000 0.446513
vt 0.625000 0.333587
vt 0.375000 0.333587
vt 0.375000 0.446513
vt 0.375000 0.916413
vt 0.625000 0.916413
vt 0.625000 0.803487
vt 0.375000 0.803487
vt 0.321513 0.500000
vt 0.208586 0.500000
vt 0.208587 0.750000
vt 0.321513 0.750000
vt 0.791413 0.750000
vt 0.791413 0.500000
vt 0.678487 0.500000
vt 0.678487 0.750000
vt 0.375000 0.153195
vt 0.625000 0.153195
vt 0.625000 0.040269
vt 0.375000 0.040269
vt 0.625000 0.709731
vt 0.625000 0.596804
vt 0.375000 0.596805
vt 0.375000 0.709731
vt 0.125000 0.596805
vt 0.125000 0.709731
vt 0.875000 0.709731
vt 0.875000 0.596804
vt 0.375000 0.596804
vt 0.625000 0.596805
vt 0.375000 0.166177
vt 0.625000 0.166177
vt 0.625000 0.053236
vt 0.375000 0.053236
vt 0.625000 0.692798
vt 0.625000 0.579858
vt 0.375000 0.579858
vt 0.375000 0.692798
vt 0.125000 0.583823
vt 0.125000 0.696764
vt 0.875000 0.696764
vt 0.875000 0.583823
vt 0.625000 0.169540
vt 0.625000 0.056542
vt 0.375000 0.056542
vt 0.375000 0.169540
vt 0.375000 0.589372
vt 0.375000 0.702371
vt 0.625000 0.702371
vt 0.625000 0.589372
vt 0.125000 0.580460
vt 0.125000 0.693458
vt 0.875000 0.693458
vt 0.875000 0.580460
vt 0.625000 0.423500
vt 0.625000 0.310574
vt 0.377458 0.310574
vt 0.377458 0.423500
vt 0.377458 0.939426
vt 0.625000 0.939426
vt 0.625000 0.826499
vt 0.377458 0.826500
vt 0.814426 0.750000
vt 0.814426 0.500000
vt 0.701500 0.500000
vt 0.701499 0.750000
s 0
usemtl 
f 1/1/1 9/2/1 10/3/1 3/4/1
f 3/4/2 10/3/2 11/5/2 7/6/2
f 7/6/3 11/5/3 12/7/3 5/8/3
f 5/8/4 12/7/4 9/9/4 1/10/4
f 3/11/5 7/6/5 5/8/5 1/12/5
f 8/13/6 4/14/6 2/15/6 6/16/6
f 15/5/2 11/5/2 81/17/2 80/18/2
f 79/19/2 81/17/2 11/5/2 10/3/2 14/3/2 15/5/2 80/18/2 78/19/2 86/20/2 85/21/2 82/21/2 84/22/2 83/23/2
f 86/20/2 78/19/2 79/19/2 83/23/2
f 66/24/4 13/9/4 9/9/4 67/24/4
f 69/25/4 67/24/4 9/9/4 12/7/4 16/7/4 13/9/4 66/24/4 68/26/4
f 59/27/1 62/28/1 13/2/1 23/29/1 30/29/1 29/30/1 21/31/1 9/2/1 64/28/1 60/32/1
f 64/28/1 9/2/1 13/2/1 62/28/1
f 24/33/1 23/29/1 13/2/1 14/3/1 10/3/1 9/2/1 21/31/1 31/31/1 32/34/1 22/35/1 34/35/1 33/33/1
f 8/13/4 19/13/4 45/36/4 43/36/4
f 44/37/4 45/36/4 19/13/4 18/14/4 4/14/4 8/13/4 43/36/4 42/38/4 88/39/4 89/40/4 87/41/4 90/42/4 91/43/4
f 42/38/4 44/37/4 91/43/4 88/39/4
f 17/15/6 18/14/6 14/44/6 13/45/6
f 18/14/6 19/13/6 15/5/6 14/44/6
f 19/13/6 20/16/6 16/7/6 15/5/6
f 20/16/6 17/15/6 13/45/6 16/7/6
f 46/46/1 6/16/1 20/16/1 48/47/1
f 51/48/1 19/13/1 8/13/1 52/48/1
f 49/49/1 52/48/1 8/13/1 6/16/1 46/46/1 47/50/1 50/51/1 48/47/1 20/16/1 19/13/1 51/48/1 53/49/1
f 35/52/3 25/53/3 2/15/3 4/14/3 18/14/3 17/15/3 27/54/3 28/55/3 37/55/3 26/55/3 36/56/3
f 63/57/3 17/15/3 2/15/3 65/58/3
f 61/59/3 65/58/3 2/15/3 25/53/3 38/54/3 27/54/3 17/15/3 63/57/3 58/60/3
f 75/61/3 11/5/3 15/5/3 74/61/3
f 76/62/3 74/61/3 15/5/3 16/7/3 72/63/3 70/64/3 71/65/3 73/66/3 12/7/3 11/5/3 75/61/3 77/67/3
f 72/63/3 16/7/3 12/7/3 73/66/3
f 54/68/2 2/15/2 17/15/2 56/69/2
f 57/70/2 56/69/2 17/15/2 20/16/2 6/16/2 2/15/2 54/68/2 55/71/2
f 37/72/4 28/73/4 24/74/4 33/75/4
f 34/76/4 22/77/4 40/78/4
f 40/78/4 22/77/4 26/79/4 37/72/4 33/75/4 34/76/4
f 30/80/2 23/81/2 27/82/2 38/83/2 39/84/2
f 39/84/2 41/85/2 29/86/2 30/80/2
f 41/85/2 39/84/2 38/83/2 25/87/2 21/88/2 29/86/2
f 24/89/5 28/90/5 27/91/5 23/92/5
f 36/79/4 26/93/4 22/94/4 32/77/4
f 35/87/2 31/88/2 21/95/2 25/96/2
f 32/97/6 31/98/6 35/99/6 36/100/6
f 58/101/4 59/102/4 60/103/4 61/104/4
f 62/105/2 63/106/2 65/107/2 64/108/2
f 64/109/6 65/110/6 61/111/6 60/112/6
f 63/113/5 62/114/5 59/115/5 58/116/5
f 67/117/3 54/118/3 56/119/3 66/120/3
f 55/121/1 69/122/1 68/123/1 57/124/1
f 69/125/6 55/126/6 54/127/6 67/128/6
f 56/129/5 57/130/5 68/131/5 66/132/5
f 70/133/4 50/134/4 47/135/4 71/136/4
f 73/137/2 46/138/2 48/139/2 72/140/2
f 47/141/6 46/142/6 73/143/6 71/144/6
f 50/145/5 70/146/5 72/147/5 48/148/5
f 51/134/4 52/135/4 75/136/4 74/133/4
f 77/137/2 49/138/2 53/139/2 76/140/2
f 52/141/6 49/142/6 77/143/6 75/144/6
f 76/147/5 53/148/5 51/145/5 74/146/5
f 78/149/3 44/150/3 42/151/3 79/152/3
f 81/153/1 43/154/1 45/155/1 80/156/1
f 79/157/6 42/158/6 43/159/6 81/160/6
f 45/161/5 44/162/5 78/163/5 80/164/5
f 87/165/3 82/166/3 85/167/3 90/168/3
f 91/169/1 86/170/1 83/171/1 84/172/1 89/173/1 88/174/1
f 89/173/6 84/172/6 82/175/6 87/176/6
f 85/177/5 86/170/5 91/169/5 90/178/5
f 92/1/4 93/2/4 95/3/4 94/4/4
f 163/179/1 161/180/1 159/181/1 156/182/1 160/183/1 94/4/1 95/3/1 157/184/1 158/185/1 162/186/1
f 172/187/3 169/188/3 93/9/3 92/10/3 171/189/3 168/190/3 170/191/3 173/192/3
f 171/193/5 92/12/5 94/11/5 160/194/5
f 172/195/5 173/196/5 161/197/5 163/198/5 134/199/5 214/200/5 108/201/5
f 96/8/5 172/195/5 108/201/5 214/200/5 132/202/5 167/203/5
f 98/6/5 166/204/5 214/200/5 134/199/5 163/198/5
f 214/200/5 166/204/5 167/203/5 132/202/5
f 157/205/6 95/44/6 93/45/6 169/206/6 109/207/6 213/208/6 135/209/6
f 133/210/6 213/208/6 109/207/6 169/206/6 97/7/6 164/211/6
f 133/210/6 164/211/6 165/212/6 213/208/6
f 135/209/6 213/208/6 165/212/6 99/5/6 157/205/6
f 100/1/1 101/2/1 103/3/1 102/4/1
f 177/213/2 186/214/2 190/215/2 184/216/2
f 188/217/2 185/218/2 174/219/2 175/220/2 178/221/2 179/222/2 107/5/2 106/6/2 187/223/2
f 187/223/2 178/221/2 175/220/2 188/217/2
f 193/224/2 102/4/2 103/3/2 183/225/2
f 190/215/2 186/214/2 191/226/2 182/227/2 181/228/2 177/213/2 184/216/2 180/229/2 189/230/2
f 106/6/3 107/5/3 105/7/3 104/8/3
f 101/9/4 100/10/4 212/231/4 203/232/4
f 201/233/4 209/234/4 210/235/4 211/236/4 206/237/4 194/238/4 207/239/4 208/240/4 199/241/4 196/242/4 197/243/4 198/244/4 202/245/4 200/246/4
f 104/8/4 105/7/4 195/247/4 204/248/4
f 207/239/4 194/238/4 197/243/4 196/242/4
f 210/235/4 200/246/4 202/245/4 211/236/4
f 212/249/5 100/12/5 102/11/5 193/250/5 271/251/5 150/252/5 258/253/5
f 142/254/5 140/255/5 187/256/5 106/6/5 104/8/5 204/257/5 249/258/5 128/259/5 130/260/5 206/261/5 211/262/5 265/263/5 191/264/5 186/265/5 266/266/5
f 187/256/5 140/255/5 142/254/5 281/267/5 266/266/5 186/265/5
f 192/268/5 280/269/5 271/251/5 193/250/5
f 264/270/5 279/271/5 136/272/5
f 205/273/5 278/274/5 249/258/5 204/257/5
f 265/263/5 264/270/5 136/272/5 138/275/5 258/253/5 150/252/5 271/251/5 280/269/5 192/268/5 191/264/5
f 212/249/5 258/253/5 148/276/5 265/263/5 211/262/5
f 148/276/5 258/253/5 138/275/5 136/272/5 279/271/5 264/270/5 265/263/5
f 130/260/5 128/259/5 249/258/5 278/274/5 205/273/5 206/261/5
f 266/266/5 281/267/5 142/254/5
f 255/277/6 151/278/6 183/279/6 103/44/6 101/45/6 203/280/6
f 129/281/6 195/282/6 105/7/6 107/5/6 179/283/6 267/284/6 141/285/6 143/286/6 177/287/6 181/288/6 261/289/6 202/290/6 198/291/6 131/292/6
f 267/284/6 179/283/6 176/293/6 283/294/6
f 139/295/6 254/296/6 284/297/6
f 176/293/6 177/287/6 143/286/6 141/285/6 267/284/6 283/294/6
f 255/277/6 203/280/6 202/290/6 261/289/6 273/298/6 149/299/6
f 195/282/6 129/281/6 131/292/6 198/291/6
f 151/278/6 255/277/6 254/296/6 139/295/6 137/300/6 261/289/6 181/288/6 183/279/6
f 149/299/6 273/298/6 282/301/6
f 254/296/6 255/277/6 149/299/6 282/301/6 273/298/6 261/289/6 137/300/6 139/295/6 284/297/6
f 220/302/2 219/303/2 217/304/2 218/305/2 216/306/2 215/307/2 221/308/2 222/309/2
f 227/310/4 169/311/4 172/312/4 228/313/4
f 228/314/5 172/315/5 96/316/5 167/317/5 220/318/5 222/319/5 126/320/5 234/321/5
f 234/321/5 122/322/5 225/323/5 226/324/5
f 234/321/5 226/324/5 112/8/5 228/314/5
f 122/322/5 234/321/5 126/320/5 222/319/5 114/6/5 225/323/5
f 167/317/5 166/325/5 110/11/5 220/318/5
f 164/326/6 97/327/6 169/328/6 227/329/6 231/330/6 127/331/6 216/332/6 218/333/6
f 111/44/6 165/334/6 164/326/6 218/333/6
f 227/329/6 113/7/6 224/335/6 231/330/6
f 127/331/6 231/330/6 123/336/6 223/337/6 115/5/6 216/332/6
f 223/337/6 123/336/6 231/330/6 224/335/6
f 116/1/4 117/2/4 119/3/4 118/4/4
f 118/4/1 119/3/1 227/338/1 228/339/1 233/180/1 230/181/1 229/182/1 232/183/1
f 241/340/3 237/341/3 236/342/3 238/343/3 117/9/3 116/10/3 240/189/3 235/190/3 239/191/3 242/192/3
f 112/344/5 226/345/5 124/346/5 241/347/5 242/196/5 233/197/5 228/348/5
f 116/12/5 118/11/5 232/194/5 240/193/5
f 124/346/5 226/345/5 225/349/5 120/8/5 241/347/5
f 113/350/6 227/351/6 119/44/6 117/45/6 238/352/6 125/353/6 224/354/6
f 121/7/6 223/355/6 224/354/6 125/353/6 238/352/6
f 244/356/7 215/357/7 216/358/7 198/359/7 197/360/7 194/361/7 206/362/7 222/363/7 221/364/7 246/365/7 245/366/7 243/367/7
f 221/364/7 215/357/7 244/356/7 246/365/7
f 236/368/8 237/369/8 251/370/8 247/371/8
f 251/370/8 237/369/8 241/372/8 204/373/8 195/374/8 238/375/8 236/368/8 247/371/8 248/376/8 250/377/8
f 120/378/5 225/379/5 114/380/5 222/381/5 206/382/5 205/383/5 204/384/5 241/385/5
f 216/386/6 115/387/6 223/388/6 121/389/6 238/390/6 195/391/6 198/392/6
f 157/393/9 203/394/9 212/395/9 163/396/9 162/397/9 256/398/9 257/399/9 253/400/9 252/401/9 158/402/9
f 162/397/9 158/402/9 252/401/9 256/398/9
f 259/403/10 217/404/10 219/405/10 262/406/10
f 262/406/10 219/405/10 220/407/10 211/408/10 202/409/10 218/410/10 217/404/10 259/403/10 260/411/10 263/412/10
f 166/413/5 98/414/5 163/415/5 212/416/5 211/417/5 220/418/5 110/419/5
f 218/420/6 202/421/6 203/422/6 157/423/6 99/424/6 165/425/6 111/426/6
f 147/5/1 146/6/1 186/427/1 177/428/1
f 146/6/2 147/5/2 145/7/2 144/8/2
f 187/429/3 144/8/3 145/7/3 179/430/3 178/431/3
f 186/432/5 146/6/5 144/8/5 187/433/5
f 145/7/6 147/5/6 177/434/6 176/435/6 179/436/6
f 269/437/1 183/428/1 155/5/1 154/6/1 193/427/1 270/438/1 272/439/1 268/440/1
f 270/438/1 193/427/1 183/428/1 269/437/1
f 154/6/2 155/5/2 153/7/2 152/8/2
f 182/431/3 191/429/3 277/441/3 275/442/3
f 277/441/3 191/429/3 152/8/3 153/7/3 181/430/3 182/431/3 275/442/3 274/443/3 276/444/3
f 154/6/5 152/8/5 191/433/5 192/445/5 193/432/5
f 181/436/6 153/7/6 155/5/6 183/434/6
f 170/446/4 159/447/4 161/448/4 173/449/4
f 160/450/2 156/451/2 168/452/2 171/453/2
f 156/454/5 159/455/5 170/456/5 168/457/5
f 274/458/4 268/459/4 272/460/4 276/461/4
f 270/462/2 269/463/2 275/464/2 277/465/2
f 276/466/6 272/467/6 270/468/6 277/469/6
f 269/470/5 268/471/5 274/472/5 275/473/5
f 189/474/3 180/475/3 200/476/3 210/477/3
f 201/478/1 184/479/1 190/480/1 209/481/1
f 209/481/6 190/480/6 189/482/6 210/483/6
f 200/484/5 180/485/5 184/479/5 201/478/5
f 208/477/3 188/474/3 175/475/3 199/476/3
f 185/486/1 207/481/1 196/478/1 174/487/1
f 207/481/6 185/486/6 188/482/6 208/483/6
f 199/484/5 175/485/5 174/487/5 196/478/5
f 246/488/11 244/489/11 247/490/11 251/491/11
f 248/492/12 243/493/12 245/494/12 250/495/12
f 250/495/6 245/494/6 246/496/6 251/497/6
f 243/493/5 248/492/5 247/498/5 244/499/5
f 260/500/13 253/501/13 257/502/13 263/503/13
f 262/504/14 256/505/14 252/506/14 259/507/14
f 263/508/6 257/509/6 256/505/6 262/504/6
f 252/506/5 253/510/5 260/511/5 259/507/5
f 239/512/4 230/513/4 233/514/4 242/515/4
f 232/516/2 229/517/2 235/518/2 240/519/2
f 229/520/5 230/521/5 239/522/5 235/523/5
o Cube
v 0.979117 0.023730 8.725028
v 0.979117 0.283335 8.725028
v 0.979117 0.023730 6.478046
v 0.979117 0.283335 6.478046
v 1.419388 0.023730 8.725028
v 1.419388 0.283335 8.725028
v 1.419388 0.023730 6.478046
v 1.419388 0.283335 6.478046
v 1.419388 0.283335 8.725028
v 1.419388 0.542940 8.725028
v 1.419388 0.283335 6.478046
v 1.419388 0.542940 6.478046
v 1.859659 0.283335 8.725028
v 1.859659 0.542940 8.725028
v 1.859659 0.283335 6.478046
v 1.859659 0.542940 6.478046
v 1.859659 0.542940 8.725028
v 1.859659 0.802545 8.725028
v 1.859659 0.542940 6.478046
v 1.859659 0.802545 6.478046
v 2.299930 0.542940 8.725028
v 2.299930 0.802545 8.725028
v 2.299930 0.542940 6.478046
v 2.299930 0.802545 6.478046
v 2.299930 0.802545 8.725028
v 2.299930 1.062150 8.725028
v 2.299930 0.802545 6.478046
v 2.299930 1.062150 6.478046
v 2.740201 0.802545 8.725028
v 2.740201 1.062150 8.725028
v 2.740201 0.802545 6.478046
v 2.740201 1.062150 6.478046
v 2.740201 1.062150 8.725028
v 2.740201 1.321755 8.725028
v 2.740201 1.062150 6.478046
v 2.740201 1.321755 6.478046
v 3.180472 1.062150 8.725028
v 3.180472 1.321755 8.725028
v 3.180472 1.062150 6.478046
v 3.180472 1.321755 6.478046
v 3.180472 1.321755 8.725028
v 3.180472 1.581360 8.725028
v 3.180472 1.321755 6.478046
v 3.180472 1.581360 6.478046
v 3.620743 1.321755 8.725028
v 3.620743 1.581360 8.725028
v 3.620743 1.321755 6.478046
v 3.620743 1.581360 6.478046
v 3.620743 1.581360 8.725028
v 3.620743 1.840965 8.725028
v 3.620743 1.581360 6.478046
v 3.620743 1.840965 6.478046
v 4.061014 1.581360 8.725028
v 4.061014 1.840965 8.725028
v 4.061014 1.581360 6.478046
v 4.061014 1.840965 6.478046
v 4.061014 1.840965 8.725028
v 4.061014 2.100569 8.725028
v 4.061014 1.840965 6.478046
v 4.061014 2.100569 6.478046
v 4.501285 1.840965 8.725028
v 4.501285 2.100569 8.725028
v 4.501285 1.840965 6.478046
v 4.501285 2.100569 6.478046
v 4.501285 2.100569 8.725028
v 4.501285 2.360174 8.725028
v 4.501285 2.100569 6.478046
v 4.501285 2.360174 6.478046
v 4.941556 2.100569 8.725028
v 4.941556 2.360174 8.725028
v 4.941556 2.100569 6.478046
v 4.941556 2.360174 6.478046
v 4.941556 2.360174 8.725028
v 4.941556 2.619779 8.725028
v 4.941556 2.360174 6.478046
v 4.941556 2.619779 6.478046
v 5.381827 2.360174 8.725028
v 5.381827 2.619779 8.725028
v 5.381827 2.360174 6.478046
v 5.381827 2.619779 6.478046
vn -1.0000 -0.0000 -0.0000
vn -0.0000 -0.0000 -1.0000
vn 1.0000 -0.0000 -0.0000
vn -0.0000 -0.0000 1.0000
vn -0.0000 -1.0000 -0.0000
vn -0.0000 1.0000 -0.0000
vt 0.375000 0.000000
vt 0.625000 0.000000
vt 0.625000 0.250000
vt 0.375000 0.250000
vt 0.625000 0.500000
vt 0.375000 0.500000
vt 0.625000 0.750000
vt 0.375000 0.750000
vt 0.625000 1.000000
vt 0.375000 1.000000
vt 0.125000 0.500000
vt 0.125000 0.750000
vt 0.875000 0.500000
vt 0.875000 0.750000
s 1
usemtl 
f 285/524/15 286/525/15 288/526/15 287/527/15
f 287/527/16 288/526/16 292/528/16 291/529/16
f 291/529/17 292/528/17 290/530/17 289/531/17
f 289/531/18 290/530/18 286/532/18 285/533/18
f 287/534/19 291/529/19 289/531/19 285/535/19
f 292/528/20 288/536/20 286/537/20 290/530/20
f 293/524/15 294/525/15 296/526/15 295/527/15
f 295/527/16 296/526/16 300/528/16 299/529/16
f 299/529/17 300/528/17 298/530/17 297/531/17
f 297/531/18 298/530/18 294/532/18 293/533/18
f 295/534/19 299/529/19 297/531/19 293/535/19
f 300/528/20 296/536/20 294/537/20 298/530/20
f 301/524/15 302/525/15 304/526/15 303/527/15
f 303/527/16 304/526/16 308/528/16 307/529/16
f 307/529/17 308/528/17 306/530/17 305/531/17
f 305/531/18 306/530/18 302/532/18 301/533/18
f 303/534/19 307/529/19 305/531/19 301/535/19
f 308/528/20 304/536/20 302/537/20 306/530/20
f 309/524/15 310/525/15 312/526/15 311/527/15
f 311/527/16 312/526/16 316/528/16 315/529/16
f 315/529/17 316/528/17 314/530/17 313/531/17
f 313/531/18 314/530/18 310/532/18 309/533/18
f 311/534/19 315/529/19 313/531/19 309/535/19
f 316/528/20 312/536/20 310/537/20 314/530/20
f 317/524/15 318/525/15 320/526/15 319/527/15
f 319/527/16 320/526/16 324/528/16 323/529/16
f 323/529/17 324/528/17 322/530/17 321/531/17
f 321/531/18 322/530/18 318/532/18 317/533/18
f 319/534/19 323/529/19 321/531/19 317/535/19
f 324/528/20 320/536/20 318/537/20 322/530/20
f 325/524/15 326/525/15 328/526/15 327/527/15
f 327/527/16 328/526/16 332/528/16 331/529/16
f 331/529/17 332/528/17 330/530/17 329/531/17
f 329/531/18 330/530/18 326/532/18 325/533/18
f 327/534/19 331/529/19 329/531/19 325/535/19
f 332/528/20 328/536/20 326/537/20 330/530/20
f 333/524/15 334/525/15 336/526/15 335/527/15
f 335/527/16 336/526/16 340/528/16 339/529/16
f 339/529/17 340/528/17 338/530/17 337/531/17
f 337/531/18 338/530/18 334/532/18 333/533/18
f 335/534/19 339/529/19 337/531/19 333/535/19
f 340/528/20 336/536/20 334/537/20 338/530/20
f 341/524/15 342/525/15 344/526/15 343/527/15
f 343/527/16 344/526/16 348/528/16 347/529/16
f 347/529/17 348/528/17 346/530/17 345/531/17
f 345/531/18 346/530/18 342/532/18 341/533/18
f 343/534/19 347/529/19 345/531/19 341/535/19
f 348/528/20 344/536/20 342/537/20 346/530/20
f 349/524/15 350/525/15 352/526/15 351/527/15
f 351/527/16 352/526/16 356/528/16 355/529/16
f 355/529/17 356/528/17 354/530/17 353/531/17
f 353/531/18 354/530/18 350/532/18 349/533/18
f 351/534/19 355/529/19 353/531/19 349/535/19
f 356/528/20 352/536/20 350/537/20 354/530/20
f 357/524/15 358/525/15 360/526/15 359/527/15
f 359/527/16 360/526/16 364/528/16 363/529/16
f 363/529/17 364/528/17 362/530/17 361/531/17
f 361/531/18 362/530/18 358/532/18 357/533/18
f 359/534/19 363/529/19 361/531/19 357/535/19
f 364/528/20 360/536/20 358/537/20 362/530/20
o Cube.001
v -8.706855 0.023730 -7.215042
v -8.706855 0.283335 -7.215042
v -6.459873 0.023730 -7.215042
v -6.459873 0.283335 -7.215042
v -8.706855 0.023730 -6.774771
v -8.706855 0.283335 -6.774771
v -6.459873 0.023730 -6.774771
v -6.459873 0.283335 -6.774771
v -8.706855 0.283335 -6.774771
v -8.706855 0.542940 -6.774771
v -6.459873 0.283335 -6.774771
v -6.459873 0.542940 -6.774771
v -8.706855 0.283335 -6.334500
v -8.706855 0.542940 -6.334500
v -6.459873 0.283335 -6.334500
v -6.459873 0.542940 -6.334500
v -8.706855 0.542940 -6.334500
v -8.706855 0.802545 -6.334500
v -6.459873 0.542940 -6.334500
v -6.459873 0.802545 -6.334500
v -8.706855 0.542940 -5.894229
v -8.706855 0.802545 -5.894229
v -6.459873 0.542940 -5.894229
v -6.459873 0.802545 -5.894229
v -8.706855 0.802545 -5.894229
v -8.706855 1.062150 -5.894229
v -6.459873 0.802545 -5.894229
v -6.459873 1.062150 -5.894229
v -8.706855 0.802545 -5.453958
v -8.706855 1.062150 -5.453958
v -6.459873 0.802545 -5.453958
v -6.459873 1.062150 -5.453958
v -8.706855 1.062150 -5.453958
v -8.706855 1.321755 -5.453958
v -6.459873 1.062150 -5.453958
v -6.459873 1.321755 -5.453958
v -8.706855 1.062150 -5.013687
v -8.706855 1.321755 -5.013687
v -6.459873 1.062150 -5.013687
v -6.459873 1.321755 -5.013687
v -8.706855 1.321755 -5.013687
v -8.706855 1.581360 -5.013687
v -6.459873 1.321755 -5.013687
v -6.459873 1.581360 -5.013687
v -8.706855 1.321755 -4.573416
v -8.706855 1.581360 -4.573416
v -6.459873 1.321755 -4.573416
v -6.459873 1.581360 -4.573416
v -8.706855 1.581360 -4.573416
v -8.706855 1.840965 -4.573416
v -6.459873 1.581360 -4.573416
v -6.459873 1.840965 -4.573416
v -8.706855 1.581360 -4.133145
v -8.706855 1.840965 -4.133145
v -6.459873 1.581360 -4.133145
v -6.459873 1.840965 -4.133145
v -8.706855 1.840965 -4.133144
v -8.706855 2.100569 -4.133144
v -6.459873 1.840965 -4.133144
v -6.459873 2.100569 -4.133144
v -8.706855 1.840965 -3.692874
v -8.706855 2.100569 -3.692874
v -6.459873 1.840965 -3.692874
v -6.459873 2.100569 -3.692874
v -8.706855 2.100569 -3.692874
v -8.706855 2.360174 -3.692874
v -6.459873 2.100569 -3.692874
v -6.459873 2.360174 -3.692874
v -8.706855 2.100569 -3.252603
v -8.706855 2.360174 -3.252603
v -6.459873 2.100569 -3.252603
v -6.459873 2.360174 -3.252603
v -8.706855 2.360174 -3.252603
v -8.706855 2.619779 -3.252603
v -6.459873 2.360174 -3.252603
v -6.459873 2.619779 -3.252603
v -8.706855 2.360174 -2.812332
v -8.706855 2.619779 -2.812332
v -6.459874 2.360174 -2.812332
v -6.459874 2.619779 -2.812332
vn -0.0000 -0.0000 -1.0000
vn 1.0000 -0.0000 -0.0000
vn -0.0000 -0.0000 1.0000
vn -1.0000 -0.0000 -0.0000
vn -0.0000 -1.0000 -0.0000
vn -0.0000 1.0000 -0.0000
vt 0.375000 0.000000
vt 0.625000 0.000000
vt 0.625000 0.250000
vt 0.375000 0.250000
vt 0.625000 0.500000
vt 0.375000 0.500000
vt 0.625000 0.750000
vt 0.375000 0.750000
vt 0.625000 1.000000
vt 0.375000 1.000000
vt 0.125000 0.500000
vt 0.125000 0.750000
vt 0.875000 0.500000
vt 0.875000 0.750000
s 1
usemtl 
f 365/538/21 366/539/21 368/540/21 367/541/21
f 367/541/22 368/540/22 372/542/22 371/543/22
f 371/543/23 372/542/23 370/544/23 369/545/23
f 369/545/24 370/544/24 366/546/24 365/547/24
f 367/548/25 371/543/25 369/545/25 365/549/25
f 372/542/26 368/550/26 366/551/26 370/544/26
f 373/538/21 374/539/21 376/540/21 375/541/21
f 375/541/22 376/540/22 380/542/22 379/543/22
f 379/543/23 380/542/23 378/544/23 377/545/23
f 377/545/24 378/544/24 374/546/24 373/547/24
f 375/548/25 379/543/25 377/545/25 373/549/25
f 380/542/26 376/550/26 374/551/26 378/544/26
f 381/538/21 382/539/21 384/540/21 383/541/21
f 383/541/22 384/540/22 388/542/22 387/543/22
f 387/543/23 388/542/23 386/544/23 385/545/23
f 385/545/24 386/544/24 382/546/24 381/547/24
f 383/548/25 387/543/25 385/545/25 381/549/25
f 388/542/26 384/550/26 382/551/26 386/544/26
f 389/538/21 390/539/21 392/540/21 391/541/21
f 391/541/22 392/540/22 396/542/22 395/543/22
f 395/543/23 396/542/23 394/544/23 393/545/23
f 393/545/24 394/544/24 390/546/24 389/547/24
f 391/548/25 395/543/25 393/545/25 389/549/25
f 396/542/26 392/550/26 390/551/26 394/544/26
f 397/538/21 398/539/21 400/540/21 399/541/21
f 399/541/22 400/540/22 404/542/22 403/543/22
f 403/543/23 404/542/23 402/544/23 401/545/23
f 401/545/24 402/544/24 398/546/24 397/547/24
f 399/548/25 403/543/25 401/545/25 397/549/25
f 404/542/26 400/550/26 398/551/26 402/544/26
f 405/538/21 406/539/21 408/540/21 407/541/21
f 407/541/22 408/540/22 412/542/22 411/543/22
f 411/543/23 412/542/23 410/544/23 409/545/23
f 409/545/24 410/544/24 406/546/24 405/547/24
f 407/548/25 411/543/25 409/545/25 405/549/25
f 412/542/26 408/550/26 406/551/26 410/544/26
f 413/538/21 414/539/21 416/540/21 415/541/21
f 415/541/22 416/540/22 420/542/22 419/543/22
f 419/543/23 420/542/23 418/544/23 417/545/23
f 417/545/24 418/544/24 414/546/24 413/547/24
f 415/548/25 419/543/25 417/545/25 413/549/25
f 420/542/26 416/550/26 414/551/26 418/544/26
f 421/538/21 422/539/21 424/540/21 423/541/21
f 423/541/22 424/540/22 428/542/22 427/543/22
f 427/543/23 428/542/23 426/544/23 425/545/23
f 425/545/24 426/544/24 422/546/24 421/547/24
f 423/548/25 427/543/25 425/545/25 421/549/25
f 428/542/26 424/550/26 422/551/26 426/544/26
f 429/538/21 430/539/21 432/540/21 431/541/21
f 431/541/22 432/540/22 436/542/22 435/543/22
f 435/543/23 436/542/23 434/544/23 433/545/23
f 433/545/24 434/544/24 430/546/24 429/547/24
f 431/548/25 435/543/25 433/545/25 429/549/25
f 436/542/26 432/550/26 430/551/26 434/544/26
f 437/538/21 438/539/21 440/540/21 439/541/21
f 439/541/22 440/540/22 444/542/22 443/543/22
f 443/543/23 444/542/23 442/544/23 441/545/23
f 441/545/24 442/544/24 438/546/24 437/547/24
f 439/548/25 443/543/25 441/545/25 437/549/25
f 444/542/26 440/550/26 438/551/26 442/544/26
o Cube.002-colonly
v 0.755494 0.058208 8.650936
v 2.756747 1.288889 8.650936
v 0.755494 0.058208 6.650936
v 2.756747 1.288889 6.650936
v 3.088191 0.858992 8.650936
v 4.954001 2.596917 8.650936
v 3.088191 0.858992 6.650936
v 4.954001 2.596917 6.650936
vn -0.5238 0.8518 -0.0000
vn -0.0000 -0.0000 -1.0000
vn 0.6816 -0.7317 -0.0000
vn -0.0000 -0.0000 1.0000
vn 0.3247 -0.9458 -0.0000
vn -0.5115 0.8593 -0.0000
vt 0.375000 0.000000
vt 0.625000 0.000000
vt 0.625000 0.250000
vt 0.375000 0.250000
vt 0.625000 0.500000
vt 0.375000 0.500000
vt 0.625000 0.750000
vt 0.375000 0.750000
vt 0.625000 1.000000
vt 0.375000 1.000000
vt 0.125000 0.500000
vt 0.125000 0.750000
vt 0.875000 0.500000
vt 0.875000 0.750000
s 0
f 445/552/27 446/553/27 448/554/27 447/555/27
f 447/555/28 448/554/28 452/556/28 451/557/28
f 451/557/29 452/556/29 450/558/29 449/559/29
f 449/559/30 450/558/30 446/560/30 445/561/30
f 447/562/31 451/557/31 449/559/31 445/563/31
f 452/556/32 448/564/32 446/565/32 450/558/32
o Cube.002-colonly.001
v -8.466147 0.058208 -7.207282
v -8.466148 1.288889 -5.206028
v -6.466148 0.058208 -7.207282
v -6.466148 1.288889 -5.206028
v -8.466148 0.858992 -4.874585
v -8.466148 2.596917 -3.008774
v -6.466148 0.858992 -4.874585
v -6.466148 2.596917 -3.008774
vn -0.0000 0.8518 -0.5238
vn 1.0000 -0.0000 -0.0000
vn -0.0000 -0.7317 0.6816
vn -1.0000 -0.0000 -0.0000
vn -0.0000 -0.9458 0.3247
vn -0.0000 0.8593 -0.5115
vt 0.375000 0.000000
vt 0.625000 0.000000
vt 0.625000 0.250000
vt 0.375000 0.250000
vt 0.625000 0.500000
vt 0.375000 0.500000
vt 0.625000 0.750000
vt 0.375000 0.750000
vt 0.625000 1.000000
vt 0.375000 1.000000
vt 0.125000 0.500000
vt 0.125000 0.750000
vt 0.875000 0.500000
vt 0.875000 0.750000
s 0
f 453/566/33 454/567/33 456/568/33 455/569/33
f 455/569/34 456/568/34 460/570/34 459/571/34
f 459/571/35 460/570/35 458/572/35 457/573/35
f 457/573/36 458/572/36 454/574/36 453/575/36
f 455/576/37 459/571/37 457/573/37 453/577/37
f 460/570/38 456/578/38 454/579/38 458/572/38
