{"asset":{"version":"2.0","generator":"Blockbench 5.1.4 glTF exporter"},"scenes":[{"nodes":[0],"name":"blockbench_export"}],"scene":0,"nodes":[{"rotation":[0.1521233861899167,0,0,0.9883615104677607],"translation":[0,0.5,0.0625],"name":"mesh","mesh":0}],"bufferViews":[{"buffer":0,"byteOffset":0,"byteLength":1632,"target":34962,"byteStride":12},{"buffer":0,"byteOffset":1632,"byteLength":1632,"target":34962,"byteStride":12},{"buffer":0,"byteOffset":3264,"byteLength":1088,"target":34962,"byteStride":8},{"buffer":0,"byteOffset":4352,"byteLength":408,"target":34963}],"buffers":[{"byteLength":4760,"uri":"data:application/octet-stream;base64,"}],"accessors":[{"bufferView":0,"componentType":5126,"count":136,"max":[0.625,0.78125,0.4136689603328705],"min":[-0.625,-0.6220314502716064,-0.40769633650779724],"type":"VEC3"},{"bufferView":1,"componentType":5126,"count":136,"max":[1,1,1],"min":[-1,-1,-1],"type":"VEC3"},{"bufferView":2,"componentType":5126,"count":136,"max":[0.859375,0.944531261920929],"min":[0,0],"type":"VEC2"},{"bufferView":3,"componentType":5123,"count":204,"max":[135],"min":[0],"type":"SCALAR"}],"materials":[{"pbrMetallicRoughness":{"metallicFactor":0,"roughnessFactor":1,"baseColorTexture":{"index":0}},"alphaMode":"MASK","alphaCutoff":0.05,"doubleSided":true}],"textures":[{"sampler":0,"source":0,"name":"texture"}],"samplers":[{"magFilter":9728,"minFilter":9728,"wrapS":33071,"wrapT":33071}],"images":[{"mimeType":"image/png","name":"computah.png","uri":"computah.png"}],"meshes":[{"primitives":[{"mode":4,"attributes":{"POSITION":0,"NORMAL":1,"TEXCOORD_0":2},"indices":3,"material":0}]}]}